<svg xmlns="http://www.w3.org/2000/svg" xmlns:xlink="http://www.w3.org/1999/xlink" id="Logo" x="0px" y="0px" viewBox="0 0 75 75" style="enable-background:new 0 0 75 75;" xml:space="preserve">
<style type="text/css">
	.st0{fill:#939598;}
</style>
<g>
	<path id="Caminho_464" class="st0" d="M19.4,19.4c8.4-7.7,28-5.2,41,4.3l11.5-13.6C67.7,6.6,63.3,4,58.7,2.4   C54.1,0.8,49.2,0,44.1,0C38.9,0,34,0.8,29.4,2.5c-4.5,1.6-8.2,4.2-10.9,7.6c-2.7,3.4-4.1,7.8-4.1,13.2c0,1.9,0.2,3.7,0.7,5.5   C15,25.8,16,22.5,19.4,19.4z"></path>
	<path id="Caminho_465" class="st0" d="M52.1,32.4c-14.7-7.3-23.7-3.8-27.4-1.9c-2.6,1.3-5.5,6.9,1.9,11.1c0.8,0.4,1.7,0.9,2.6,1.3   c3.6,1.5,6.3,2.7,8.1,3.5c1.8,0.8,3.1,1.6,3.7,2.4c0.6,0.7,1,1.8,1,3.1c0,3-2.7,4.5-8.1,4.5c-4.2,0-7.8-0.6-10.7-1.8   c-3-1.2-6.1-3-9.4-5.5L3.1,64.5c4.7,3.8,9.7,6.5,15.1,8.1c5.4,1.6,11.2,2.4,17.5,2.4c5.5,0,10.4-0.8,14.9-2.5   c4.5-1.7,8.1-4.3,10.8-7.8c2.7-3.5,4.1-8.1,4.1-13.7C65.5,43.1,61,37,52.1,32.4z"></path>
</g>
</svg>